<?xml version="1.0" standalone="no"?><!DOCTYPE svg PUBLIC "-//W3C//DTD SVG 1.1//EN" "http://www.w3.org/Graphics/SVG/1.1/DTD/svg11.dtd"><svg t="1589434398864" class="icon" viewBox="0 0 1024 1024" version="1.1" xmlns="http://www.w3.org/2000/svg" p-id="685" width="200" height="200" xmlns:xlink="http://www.w3.org/1999/xlink"><defs><style type="text/css"></style></defs><path d="M42.958 554.656c0 11.774-9.526 21.33-21.33 21.33-11.774 0-21.298-9.556-21.298-21.33 0-11.79 9.526-21.346 21.298-21.346 11.804 0 21.33 9.558 21.33 21.346z" fill="#434A54" p-id="686"></path><path d="M164.378 384.344c-8.306-8.308-8.306-21.83 0-30.136l-30.136-30.138c-24.984 24.984-24.984 65.458 0 90.442l60.304 60.304 30.138-30.136-60.306-60.336z" fill="#656D78" p-id="687"></path><path d="M128.464 402.738a136.436 136.436 0 0 0-11.744 1.53c-70.298 12.368-117.206 79.386-104.838 149.702 12.398 70.298 79.418 117.208 149.716 104.808a123.556 123.556 0 0 0 11.306-2.532l850.766-193.204-29.918-169.704-865.288 109.4z" fill="#AAB2BC" p-id="688"></path><path d="M124.716 446.896a137.88 137.88 0 0 1 11.742-1.53L1001.28 336.06l-7.528-42.722-865.29 109.4a136.436 136.436 0 0 0-11.744 1.53C46.42 416.636-0.488 483.654 11.88 553.97a128.458 128.458 0 0 0 6.058 22.392c-1.12-62.508 43.288-118.254 106.778-129.466z" fill="#FFFFFF" opacity=".2" p-id="689"></path><path d="M703.908 725.204H106.916v-42.628c-21.298-216.534 596.992-191.924 596.992-191.924v234.552z" fill="#7F4545" p-id="690"></path><path d="M277.494 725.204c0 58.9-47.72 106.62-106.588 106.62-58.9 0-106.62-47.718-106.62-106.62 0-58.838 47.72-106.588 106.62-106.588 58.868 0 106.588 47.75 106.588 106.588zM725.238 725.204c0 58.9-47.718 106.62-106.62 106.62-58.87 0-106.588-47.718-106.588-106.62 0-58.838 47.718-106.588 106.588-106.588 58.902 0 106.62 47.75 106.62 106.588z" fill="#A85D5D" p-id="691"></path><path d="M192.206 725.204c0 11.804-9.556 21.362-21.298 21.362-11.804 0-21.33-9.556-21.33-21.362 0-11.742 9.526-21.298 21.33-21.298 11.74-0.002 21.298 9.554 21.298 21.298zM639.95 725.204c0 11.804-9.524 21.362-21.33 21.362-11.742 0-21.298-9.556-21.298-21.362 0-11.742 9.556-21.298 21.298-21.298 11.806-0.002 21.33 9.554 21.33 21.298z" fill="#434A54" p-id="692"></path><path d="M164.628 198.432a21.32 21.32 0 0 0-30.168 0 21.276 21.276 0 0 0-6.246 15.084h-0.032v42.628h0.032c0 5.464 2.092 10.898 6.246 15.084 8.338 8.306 21.83 8.306 30.168 0a21.148 21.148 0 0 0 6.184-15.928v-40.974a21.114 21.114 0 0 0-6.184-15.894zM99.858 240.498l-28.982-28.982c-3.904-4.184-9.43-6.87-15.614-6.87-11.774 0-21.33 9.556-21.33 21.362 0 5.872 2.404 11.18 6.246 15.052l-0.032 0.032 30.168 30.136h0.032a21.274 21.274 0 0 0 15.052 6.246c11.774 0 21.33-9.556 21.33-21.33 0-6.214-2.654-11.772-6.87-15.646zM265.252 226.008c0-11.774-9.556-21.298-21.33-21.298a21.128 21.128 0 0 0-15.616 6.838l-28.982 28.982c-4.216 3.904-6.87 9.462-6.87 15.646 0 11.774 9.556 21.298 21.33 21.298a21.14 21.14 0 0 0 15.052-6.246l0.032 0.062 30.168-30.168-0.032-0.032a21.33 21.33 0 0 0 6.248-15.082zM133.898 323.696c-8.338 8.338-8.338 21.86 0 30.168 8.308 8.306 21.83 8.306 30.136 0 8.338-8.308 8.338-21.83 0-30.168-8.306-8.31-21.828-8.31-30.136 0z" fill="#FFCE54" p-id="693"></path></svg>